<svg xmlns="http://www.w3.org/2000/svg" version="1.1" xmlns:xlink="http://www.w3.org/1999/xlink" xmlns:svgjs="http://svgjs.dev/svgjs" width="100%" height="100%" viewBox="0 0 1000 600"><rect width="1000" height="600" x="0" y="0" fill="white"/><g><rect width="333.3333333333333" height="333.3333333333333" rx="13.333333333333334" ry="13.333333333333334" y="250.7172459033331" fill="#38bec9" transform="matrix(0.5470578367637825,0,0,0.5470578367637825,0,71.66685968945225)" x="228.49491882324224"/><path d="M368.4952547784425 424.4869505740191L368.4952547784425 492.38388877463103L350.46899074628 492.38388877463103L350.46899074628 342.3838837652791L439.8541907070856 342.3838837652791L439.8541907070856 358.29116642942245L368.4952547784425 358.29116642942245L368.4952547784425 408.57966790987575L433.6166258350294 408.57966790987575L433.6166258350294 424.4869505740191L368.4952547784425 424.4869505740191Z " fill="white" transform="matrix(0.5470578367637825,0,0,0.5470578367637825,0,71.66685968945225)"/><path d="M749.0865940401092 490.00118042569466L732.3244967684349 490.00118042569466L732.3244967684349 426.9701534950187L661.8959822814993 426.9701534950187L661.8959822814993 490.00118042569466L645.1615909557287 490.00118042569466L645.1615909557287 350.751096314232L661.8959822814993 350.751096314232L661.8959822814993 412.2028843284031L732.3244967684349 412.2028843284031L732.3244967684349 350.751096314232L749.0865940401092 350.751096314232L749.0865940401092 490.00118042569466ZM868.3606911550808 476.0373836902834L868.3606911550808 490.00118042569466L859.3839646823163 490.00118042569466Q853.0115971244896 490.00118042569466 849.0219409143722 487.31370367304606Q845.0322847042547 484.62622692039747 843.2313982205211 479.8330982790757Q841.4305117367875 475.039969637754 841.4305117367875 468.8615437012526L841.4305117367875 468.8615437012526L841.4305117367875 467.4485404601693L847.6366436191926 473.23908315402036L840.6547452514868 473.23908315402036Q837.4408555266699 482.63139881533874 829.5723668900494 487.50764529437123Q821.7038782534287 492.3838917734038 810.9262652969306 492.3838917734038L810.9262652969306 492.3838917734038Q794.5520512679067 492.3838917734038 785.4922069574314 484.0166961105184Q776.4046567010527 475.64950044763305 776.4046567010527 461.27011452366787L776.4046567010527 461.27011452366787Q776.4046567010527 451.4899156196992 781.1977853423745 444.8127826569331Q785.9909139836961 438.135649694167 795.6602891040504 434.6447005103141Q805.3296642244047 431.15375132646136 820.2908750123453 431.15375132646136L820.2908750123453 431.15375132646136L840.6547452514868 431.15375132646136L840.6547452514868 420.9856691798424Q840.6547452514868 410.0141146020192 834.6702609363106 404.2235719081681Q828.6857766211343 398.433029214317 816.3012188022278 398.433029214317L816.3012188022278 398.433029214317Q807.1305507081382 398.433029214317 800.7581831503117 402.6166270457596Q794.3581096465815 406.82793082310593 790.1745118151388 413.80982919081157L790.1745118151388 413.80982919081157L780.5882545324954 404.8331027180472Q784.7995583098417 396.6321427305834 793.9702264039312 390.64765841540714Q803.1408944980208 384.66317410023083 817.104691233432 384.66317410023083L817.104691233432 384.66317410023083Q835.66767498884 384.66317410023083 846.1405225403984 393.861548140224Q856.6133700919569 403.0322162343136 856.6133700919569 419.3787243174339L856.6133700919569 419.3787243174339L856.6133700919569 476.0373836902834L868.3606911550808 476.0373836902834ZM840.6547452514868 460.0787588498133L840.6547452514868 443.12271995681385L819.4874025811412 443.12271995681385Q805.9391950342838 443.12271995681385 799.5391215305535 447.11237616693137Q793.166753972727 451.1020323770489 793.166753972727 458.69346155463364L793.166753972727 458.69346155463364L793.166753972727 462.8770593860763Q793.166753972727 470.4407826177574 798.763355045253 474.65208639510365Q804.3322501718753 478.8356842265464 813.5029182659648 478.8356842265464L813.5029182659648 478.8356842265464Q821.4822306862 478.8356842265464 827.5775387849906 476.3421490952229Q833.6728468837812 473.8486139638994 837.163796067634 469.55419234884243Q840.6547452514868 465.25977073378533 840.6547452514868 460.0787588498133L840.6547452514868 460.0787588498133ZM907.0658975824014 418.5752518862297L907.0658975824014 490.00118042569466L891.1072727419313 490.00118042569466L891.1072727419313 387.0735913938435L907.0658975824014 387.0735913938435L907.0658975824014 403.8356886655178L907.8693700136056 403.8356886655178Q911.249495413844 395.8563762452828 917.455627296249 390.2597751727568Q923.6340532327505 384.66317410023083 935.603021863103 384.66317410023083L935.603021863103 384.66317410023083Q945.7711040097219 384.66317410023083 954.3599472398361 389.56712652516694Q962.9210845240465 394.4433730041995 967.1046823554892 405.6088692033478L967.1046823554892 405.6088692033478L967.5202715440431 405.6088692033478Q970.3185720803061 397.24167354046244 977.9931190956016 390.95242382034667Q985.6676661108971 384.66317410023083 998.8279904151042 384.66317410023083L998.8279904151042 384.66317410023083Q1014.5926736342491 384.66317410023083 1023.4585763233991 394.9420800304641Q1032.3521849584527 405.2209859606975 1032.3521849584527 423.97791133743056L1032.3521849584527 423.97791133743056L1032.3521849584527 490.00118042569466L1016.3935601179827 490.00118042569466L1016.3935601179827 426.7762118736935Q1016.3935601179827 413.2002983809325 1010.9909006667818 406.1075762296125Q1005.6159471614848 399.04256002419606 993.8409201524572 399.04256002419606L993.8409201524572 399.04256002419606Q987.6624942159558 399.04256002419606 982.0658931434299 401.1205059669656Q976.4969980168075 403.22615785563875 973.0891666706655 407.6036973084066Q969.7090412704271 412.00894270707795 969.7090412704271 418.5752518862297L969.7090412704271 418.5752518862297L969.7090412704271 490.00118042569466L953.750416429957 490.00118042569466L953.750416429957 426.7762118736935Q953.750416429957 413.00635675960734 948.3754629246597 406.0244583919017Q942.972803473459 399.04256002419606 931.6133656529854 399.04256002419606L931.6133656529854 399.04256002419606Q925.4349397164841 399.04256002419606 919.7275148603437 401.1205059669656Q914.0477959501069 403.22615785563875 910.5568467662541 407.6036973084066Q907.0658975824014 412.00894270707795 907.0658975824014 418.5752518862297L907.0658975824014 418.5752518862297ZM1081.2254735323922 420.18219674863815L1081.2254735323922 490.00118042569466L1065.2668486919224 490.00118042569466L1065.2668486919224 387.0735913938435L1081.2254735323922 387.0735913938435L1081.2254735323922 406.0244583919017L1082.2228875849214 406.0244583919017Q1084.0237740686553 401.0373881292548 1087.7917827115439 396.74296651419775Q1091.5874973003365 392.4485448991407 1097.5719816155129 389.7610681464921Q1103.5564659306888 387.0735913938435 1111.9513675394778 387.0735913938435L1111.9513675394778 387.0735913938435L1118.129793475979 387.0735913938435L1118.129793475979 403.0322162343136L1108.737477814661 403.0322162343136Q1100.1763405304505 403.0322162343136 1093.9979145939492 405.33180974431184Q1087.7917827115439 407.6036973084066 1084.5224810949198 411.3994118971989Q1081.2254735323922 415.1951264859913 1081.2254735323922 420.18219674863815L1081.2254735323922 420.18219674863815ZM1177.365105817863 492.3838917734038L1177.365105817863 492.3838917734038Q1163.5952507037769 492.3838917734038 1153.1224031522183 485.70675881063767Q1142.6495556006598 479.0296258478715 1136.7758950690977 466.9498334339046Q1130.902234537536 454.8977469658413 1130.902234537536 438.5235329368173L1130.902234537536 438.5235329368173Q1130.902234537536 422.17702485369693 1136.7758950690977 410.09723243973Q1142.6495556006598 398.04514597166667 1153.1224031522183 391.36801300890056Q1163.5952507037769 384.66317410023083 1177.365105817863 384.66317410023083L1177.365105817863 384.66317410023083Q1191.134960931949 384.66317410023083 1201.6078084835076 391.36801300890056Q1212.080656035066 398.04514597166667 1217.9543165666278 410.09723243973Q1223.8556830440934 422.17702485369693 1223.8556830440934 438.5235329368173L1223.8556830440934 438.5235329368173Q1223.8556830440934 454.8977469658413 1217.9543165666278 466.9498334339046Q1212.080656035066 479.0296258478715 1201.6078084835076 485.70675881063767Q1191.134960931949 492.3838917734038 1177.365105817863 492.3838917734038ZM1177.365105817863 478.22615341666733L1177.365105817863 478.22615341666733Q1190.3314885007449 478.22615341666733 1198.504742542305 470.24684099643224Q1206.7057025297686 462.26752857619726 1206.7057025297686 445.92102049307687L1206.7057025297686 445.92102049307687L1206.7057025297686 431.15375132646136Q1206.7057025297686 414.80724324334096 1198.504742542305 406.82793082310593Q1190.3314885007449 398.8486184028709 1177.365105817863 398.8486184028709L1177.365105817863 398.8486184028709Q1164.592664756306 398.8486184028709 1156.3362928770352 406.82793082310593Q1148.0522150518605 414.80724324334096 1148.0522150518605 431.15375132646136L1148.0522150518605 431.15375132646136L1148.0522150518605 445.92102049307687Q1148.0522150518605 462.26752857619726 1156.3362928770352 470.24684099643224Q1164.592664756306 478.22615341666733 1177.365105817863 478.22615341666733ZM1299.8530926576514 365.5183654808475L1299.8530926576514 350.751096314232L1364.4910644507358 350.751096314232L1364.4910644507358 453.9003329133119Q1364.4910644507358 465.6753599223393 1359.3931704044744 474.3473209901641Q1354.322982304117 483.019282057989 1345.3462558313527 487.7015869156964Q1336.369529358588 492.3838917734038 1324.5945023495606 492.3838917734038L1324.5945023495606 492.3838917734038Q1308.4419358877653 492.3838917734038 1298.5509132001825 483.6288128678681Q1288.6875964585029 474.8460280164288 1285.8892959222399 460.6882896596924L1285.8892959222399 460.6882896596924L1301.044448331506 457.0865166922252Q1303.0392764365647 466.06324316498956 1308.7189953468014 471.7429620752263Q1314.4264202029417 477.4226809854631 1324.982385592211 477.4226809854631L1324.982385592211 477.4226809854631Q1335.759998548709 477.4226809854631 1341.7444828638854 470.85637180631136Q1347.7289671790613 464.262356681256 1347.7289671790613 450.9080907557237L1347.7289671790613 450.9080907557237L1347.7289671790613 365.5183654808475L1299.8530926576514 365.5183654808475ZM1437.8841151493557 492.3838917734038L1437.8841151493557 492.3838917734038Q1424.1419659811731 492.3838917734038 1413.6691184296146 485.70675881063767Q1403.1962708780566 479.0296258478715 1397.294904400591 466.9498334339046Q1391.4212438690292 454.8977469658413 1391.4212438690292 438.5235329368173L1391.4212438690292 438.5235329368173Q1391.4212438690292 422.17702485369693 1397.294904400591 410.09723243973Q1403.1962708780566 398.04514597166667 1413.6691184296146 391.36801300890056Q1424.1419659811731 384.66317410023083 1437.8841151493557 384.66317410023083L1437.8841151493557 384.66317410023083Q1451.6539702634423 384.66317410023083 1462.1268178150003 391.36801300890056Q1472.5996653665593 398.04514597166667 1478.5010318440245 410.09723243973Q1484.3746923755866 422.17702485369693 1484.3746923755866 438.5235329368173L1484.3746923755866 438.5235329368173Q1484.3746923755866 454.8977469658413 1478.5010318440245 466.9498334339046Q1472.5996653665593 479.0296258478715 1462.1268178150003 485.70675881063767Q1451.6539702634423 492.3838917734038 1437.8841151493557 492.3838917734038ZM1437.8841151493557 478.22615341666733L1437.8841151493557 478.22615341666733Q1450.8504978322376 478.22615341666733 1459.0514578197017 470.24684099643224Q1467.2247118612618 462.26752857619726 1467.2247118612618 445.92102049307687L1467.2247118612618 445.92102049307687L1467.2247118612618 431.15375132646136Q1467.2247118612618 414.80724324334096 1459.0514578197017 406.82793082310593Q1450.8504978322376 398.8486184028709 1437.8841151493557 398.8486184028709L1437.8841151493557 398.8486184028709Q1425.1393800337028 398.8486184028709 1416.855302208528 406.82793082310593Q1408.5712243833536 414.80724324334096 1408.5712243833536 431.15375132646136L1408.5712243833536 431.15375132646136L1408.5712243833536 445.92102049307687Q1408.5712243833536 462.26752857619726 1416.855302208528 470.24684099643224Q1425.1393800337028 478.22615341666733 1437.8841151493557 478.22615341666733ZM1526.6539658244706 490.00118042569466L1510.6953409840007 490.00118042569466L1510.6953409840007 342.3839006513466L1526.6539658244706 342.3839006513466L1526.6539658244706 403.8356886655178L1527.4574382556748 403.8356886655178Q1531.4470944657924 394.05548976154915 1539.2324652647021 389.3731849038418Q1547.0178360636123 384.66317410023083 1557.573801452881 384.66317410023083L1557.573801452881 384.66317410023083Q1570.540184135763 384.66317410023083 1579.9324997970816 391.2571892252862Q1589.2971095124963 397.8512043503415 1594.3950035587577 409.90329081840486Q1599.4651916591151 421.98308323237177 1599.4651916591151 438.5235329368173L1599.4651916591151 438.5235329368173Q1599.4651916591151 454.8977469658413 1594.3950035587577 467.06065721751895Q1589.2971095124963 479.22356746919667 1579.9324997970816 485.81758259425203Q1570.540184135763 492.3838917734038 1557.573801452881 492.3838917734038L1557.573801452881 492.3838917734038Q1547.0178360636123 492.3838917734038 1539.5372306696418 487.6184690779856Q1532.0566252756716 482.82534043666385 1527.4574382556748 473.23908315402036L1527.4574382556748 473.23908315402036L1526.6539658244706 473.23908315402036L1526.6539658244706 490.00118042569466ZM1553.1962620001136 478.03221179534216L1553.1962620001136 478.03221179534216Q1566.7721754928743 478.03221179534216 1574.529840345881 469.55419234884243Q1582.3152111447907 461.0761729023427 1582.3152111447907 447.3063177882566L1582.3152111447907 447.3063177882566L1582.3152111447907 429.76845403128164Q1582.3152111447907 415.9985989171955 1574.529840345881 407.5205794706958Q1566.7721754928743 399.04256002419606 1553.1962620001136 399.04256002419606L1553.1962620001136 399.04256002419606Q1546.0204220110827 399.04256002419606 1539.925113912292 401.6192129932303Q1533.857511759405 404.2235719081681 1530.2557387919378 408.60111136093593Q1526.6539658244706 413.00635675960734 1526.6539658244706 418.7968994534585L1526.6539658244706 418.7968994534585L1526.6539658244706 457.0865166922252Q1526.6539658244706 463.6805318172805 1530.2557387919378 468.3628366749879Q1533.857511759405 473.0451415326952 1539.925113912292 475.5386766640187Q1546.0204220110827 478.03221179534216 1553.1962620001136 478.03221179534216Z " fill="#38bec9" transform="matrix(0.5470578367637825,0,0,0.5470578367637825,0,71.66685968945225)"/></g></svg>